<svg id="Layer_2" data-name="Layer 2" xmlns="http://www.w3.org/2000/svg" viewBox="0 0 466.77 210.5"><defs><style>.cls-1{fill:#56556e;}.cls-2{fill:#9cb88a;}.cls-3{fill:#3c2946;}</style></defs><path class="cls-1" d="M204.15,109v-7.25h14.61V62.14H204.15V54.88h20.24l1.73,7h.54a39,39,0,0,1,8.23-5.74,23.13,23.13,0,0,1,10.82-2.38,10.87,10.87,0,0,1,5.9,1.41,9.34,9.34,0,0,1,3.46,4.11,21.53,21.53,0,0,1,1.68,6.55,78.13,78.13,0,0,1,.44,8.72l-7.58.1q0-6.87-1.35-10.09a4.93,4.93,0,0,0-4.93-3.22,17.75,17.75,0,0,0-6.06,1,19.58,19.58,0,0,0-4.71,2.38,25.54,25.54,0,0,0-3.41,2.8,17.28,17.28,0,0,0-2.06,2.38v31.85h20.79V109Z"/><path class="cls-2" d="M286.17,103.05a6.65,6.65,0,0,1,7.14-7.25,7.43,7.43,0,0,1,5.42,1.9,7.11,7.11,0,0,1,1.94,5.35,7.24,7.24,0,0,1-1.94,5.2,7.12,7.12,0,0,1-5.42,2.06,6.82,6.82,0,0,1-5.19-2.06A7.25,7.25,0,0,1,286.17,103.05Z"/><path class="cls-1" d="M324,33.24H342V90.82c0,4.4.74,7.51,2.22,9.31a8,8,0,0,0,6.55,2.71,15.75,15.75,0,0,0,5.79-1.08,25.77,25.77,0,0,0,6.12-3.69l3.9,6a24.12,24.12,0,0,1-3.8,2.7,27.75,27.75,0,0,1-4.24,2,28.62,28.62,0,0,1-4.34,1.24,20.57,20.57,0,0,1-4,.43,23.24,23.24,0,0,1-7.17-1,12.26,12.26,0,0,1-5.27-3.31,14.56,14.56,0,0,1-3.2-6,33.82,33.82,0,0,1-1.09-9.26V40.49H324Z"/><path class="cls-1" d="M418.07,54.88h15.48V91.8A75.81,75.81,0,0,0,434.2,102h7.25v7H426.94l-.32-9.2h-.43a22.66,22.66,0,0,1-7.45,7.57,20.66,20.66,0,0,1-11.23,2.93,27.6,27.6,0,0,1-8.47-1.14,12,12,0,0,1-5.77-4,18.36,18.36,0,0,1-3.35-7.52A53.72,53.72,0,0,1,388.84,86V62.14h-7.25V54.88h15.8V84.22a75.74,75.74,0,0,0,.38,8,17.94,17.94,0,0,0,1.56,5.95,8,8,0,0,0,3.49,3.68,13,13,0,0,0,6.17,1.24,14.13,14.13,0,0,0,9.72-3.68,23.41,23.41,0,0,0,6.28-9.2v-28h-6.92Z"/><path class="cls-3" d="M148.34,41.57a37.68,37.68,0,0,0-37.29,32.62H100.23a37.63,37.63,0,1,0-2.4,19.07H86.69A27.6,27.6,0,1,1,90.1,74.19H67a5,5,0,1,0,0,10h77.24a5,5,0,0,0,0-10H121.18a27.64,27.64,0,1,1,3.41,19.07H113.45a37.62,37.62,0,1,0,34.89-51.69Z"/><path class="cls-2" d="M92.25,156.75H98v13.64a28.52,28.52,0,0,0,.24,3.76h2.68v2.6H95.53l-.12-3.4h-.16a8.49,8.49,0,0,1-2.76,2.8,7.6,7.6,0,0,1-4.14,1.08,10.17,10.17,0,0,1-3.13-.42,4.45,4.45,0,0,1-2.14-1.46,6.88,6.88,0,0,1-1.24-2.78,20.3,20.3,0,0,1-.39-4.34v-8.8H78.77v-2.68h5.84v10.84a28.91,28.91,0,0,0,.13,2.94,6.92,6.92,0,0,0,.58,2.2,3,3,0,0,0,1.29,1.36,4.9,4.9,0,0,0,2.28.46,5.23,5.23,0,0,0,3.59-1.36,8.72,8.72,0,0,0,2.33-3.4V159.43H92.25Z"/><path class="cls-2" d="M104.41,176.75v-2.68h5.4V159.43h-5.4v-2.68h7.48l.64,2.6h.2a13.9,13.9,0,0,1,3-2.12,8.46,8.46,0,0,1,4-.88,4,4,0,0,1,2.18.52,3.46,3.46,0,0,1,1.28,1.52,8.13,8.13,0,0,1,.62,2.42A30.63,30.63,0,0,1,124,164l-2.8,0a10.32,10.32,0,0,0-.5-3.73,1.81,1.81,0,0,0-1.82-1.19,6.31,6.31,0,0,0-2.24.36,7.07,7.07,0,0,0-1.74.87,8.73,8.73,0,0,0-1.26,1,5.67,5.67,0,0,0-.76.88v11.77h7.68v2.68Z"/><path class="cls-2" d="M130.52,148.75h6.69V170a5.59,5.59,0,0,0,.81,3.44,3,3,0,0,0,2.43,1,6,6,0,0,0,2.14-.4,9.64,9.64,0,0,0,2.26-1.36l1.44,2.2a9.65,9.65,0,0,1-1.41,1,11.07,11.07,0,0,1-1.56.74,10.81,10.81,0,0,1-1.61.46,8.07,8.07,0,0,1-1.48.15,8.61,8.61,0,0,1-2.65-.37,4.57,4.57,0,0,1-2-1.22,5.34,5.34,0,0,1-1.18-2.22,12.34,12.34,0,0,1-.4-3.42v-18.6h-3.53Z"/><path class="cls-2" d="M191.24,171.35a2.27,2.27,0,0,0-1-2,8.13,8.13,0,0,0-2.48-1.12q-1.47-.42-3.21-.78a18.82,18.82,0,0,1-3.21-1,7.27,7.27,0,0,1-2.47-1.62,4,4,0,0,1-1-2.86,4.88,4.88,0,0,1,.66-2.6,5.48,5.48,0,0,1,1.74-1.78,7.73,7.73,0,0,1,2.52-1,12.83,12.83,0,0,1,3-.35,14.62,14.62,0,0,1,4.82.71,15.18,15.18,0,0,1,3.22,1.46L192.57,161q-1.32-.72-2.85-1.38a9.82,9.82,0,0,0-3.85-.66,8.49,8.49,0,0,0-1.74.18,6,6,0,0,0-1.55.54,3,3,0,0,0-1.12.94A2.34,2.34,0,0,0,181,162a1.77,1.77,0,0,0,1,1.6,10.91,10.91,0,0,0,2.47.94q1.49.38,3.21.72a14.86,14.86,0,0,1,3.21,1,7.16,7.16,0,0,1,2.48,1.72,4.15,4.15,0,0,1,1,2.92,5.64,5.64,0,0,1-2.18,4.56q-2.17,1.8-6.54,1.8a14.13,14.13,0,0,1-2.6-.24,16.82,16.82,0,0,1-2.4-.64,16,16,0,0,1-2-.9,9.52,9.52,0,0,1-1.52-1l1.6-2.6a7.32,7.32,0,0,0,1.28,1,11.88,11.88,0,0,0,3.81,1.54,10.25,10.25,0,0,0,2.21.24,10.58,10.58,0,0,0,2-.18,6,6,0,0,0,1.66-.56,3.18,3.18,0,0,0,1.14-1A2.72,2.72,0,0,0,191.24,171.35Z"/><path class="cls-2" d="M197.92,148.75h6.24v10.48h.2a8.93,8.93,0,0,1,2.88-2.18,9.51,9.51,0,0,1,4.08-.79,12.2,12.2,0,0,1,3.34.41,4.7,4.7,0,0,1,2.32,1.4,6.28,6.28,0,0,1,1.34,2.74,18.11,18.11,0,0,1,.44,4.42v11.52H215.6V165.83a18.81,18.81,0,0,0-.2-3,5.21,5.21,0,0,0-.77-2.14,3.55,3.55,0,0,0-1.58-1.3,6.21,6.21,0,0,0-2.55-.44,5.91,5.91,0,0,0-2.11.38,7,7,0,0,0-1.89,1A6.29,6.29,0,0,0,205,162a6,6,0,0,0-.86,2.06v12.72h-3.08V151.43h-3.16Z"/><path class="cls-2" d="M224,166.75a11.07,11.07,0,0,1,2.52-7.66,9.16,9.16,0,0,1,7.2-2.83,10.44,10.44,0,0,1,4.34.83,8.3,8.3,0,0,1,3,2.22,8.93,8.93,0,0,1,1.78,3.32,14.05,14.05,0,0,1,.58,4.12,13.74,13.74,0,0,1-.64,4.34,8.93,8.93,0,0,1-1.88,3.3,8.36,8.36,0,0,1-3.06,2.1,11,11,0,0,1-4.14.74,10.67,10.67,0,0,1-4.32-.82,8.62,8.62,0,0,1-3-2.22,9.16,9.16,0,0,1-1.78-3.32A14.44,14.44,0,0,1,224,166.75Zm3.32,0a12.25,12.25,0,0,0,.34,2.8,7.73,7.73,0,0,0,1.1,2.52,5.79,5.79,0,0,0,2,1.8,6,6,0,0,0,3,.68,5.85,5.85,0,0,0,4.81-2,9.07,9.07,0,0,0,1.61-5.82,11.58,11.58,0,0,0-.34-2.82,7.25,7.25,0,0,0-1.11-2.5,5.87,5.87,0,0,0-2-1.8,5.93,5.93,0,0,0-3-.68,5.79,5.79,0,0,0-4.78,2Q227.35,162.86,227.36,166.75Z"/><path class="cls-2" d="M248.4,176.75v-2.68h5.4V159.43h-5.4v-2.68h7.48l.64,2.6h.2a14.14,14.14,0,0,1,3-2.12,8.49,8.49,0,0,1,4-.88,4,4,0,0,1,2.18.52,3.33,3.33,0,0,1,1.28,1.52,7.57,7.57,0,0,1,.62,2.42A28.15,28.15,0,0,1,268,164l-2.8,0a10.1,10.1,0,0,0-.5-3.73,1.81,1.81,0,0,0-1.82-1.19,6.38,6.38,0,0,0-2.24.36,7.45,7.45,0,0,0-1.74.87,10,10,0,0,0-1.26,1,6.27,6.27,0,0,0-.76.88v11.77h7.68v2.68Z"/><path class="cls-2" d="M271,156.75h4.76v-4l3.16-.88v4.84H289.6v2.68H278.92v9.44a5.84,5.84,0,0,0,1.42,4.32,5.51,5.51,0,0,0,4,1.4,6.84,6.84,0,0,0,3.13-.68,18.09,18.09,0,0,0,2.42-1.48l1,2.36a11.43,11.43,0,0,1-3.34,1.8,12,12,0,0,1-4,.67,10,10,0,0,1-3-.45,7,7,0,0,1-2.5-1.42,6.84,6.84,0,0,1-1.72-2.46,9.23,9.23,0,0,1-.64-3.58v-9.92H271Z"/><path class="cls-2" d="M314.92,174.23a10.58,10.58,0,0,1-1.7,1.2,12.71,12.71,0,0,1-2.14,1,16.81,16.81,0,0,1-2.42.62,15.37,15.37,0,0,1-2.54.22,11.38,11.38,0,0,1-4.24-.74,8.32,8.32,0,0,1-3.08-2.12,9.39,9.39,0,0,1-1.88-3.3,13.81,13.81,0,0,1-.64-4.32,13.52,13.52,0,0,1,.7-4.49A8.47,8.47,0,0,1,302.2,157a11.94,11.94,0,0,1,4.2-.71,12.47,12.47,0,0,1,3.32.45,6.43,6.43,0,0,1,2.9,1.66,7.83,7.83,0,0,1,1.94,3.36,15.28,15.28,0,0,1,.48,5.53H299.6a7,7,0,0,0,1.94,5.39,7.35,7.35,0,0,0,5.16,1.78,9.15,9.15,0,0,0,2.14-.26,19.67,19.67,0,0,0,2-.62,10.78,10.78,0,0,0,1.7-.8,8.27,8.27,0,0,0,1.14-.8Zm-8.42-15.32a10.5,10.5,0,0,0-2.49.28,5.45,5.45,0,0,0-2.07.94,5.07,5.07,0,0,0-1.48,1.72,6.86,6.86,0,0,0-.74,2.62h12.4a6.16,6.16,0,0,0-1.69-4.1A5.37,5.37,0,0,0,306.5,158.91Z"/><path class="cls-2" d="M321.48,163.75c0-.24,0-.56,0-.94s0-.79-.06-1.2-.06-.82-.1-1.22-.08-.75-.14-1h-2.68v-2.6h5.36l.36,3.24h.2a6.69,6.69,0,0,1,1.06-1.34,8.54,8.54,0,0,1,1.54-1.2,8.09,8.09,0,0,1,2-.86,7.76,7.76,0,0,1,2.28-.33,11.85,11.85,0,0,1,3.26.41,4.87,4.87,0,0,1,2.36,1.42,6.49,6.49,0,0,1,1.42,2.76,16.94,16.94,0,0,1,.48,4.41v11.49H335.6V165.89a9.42,9.42,0,0,0-1.07-5c-.72-1.12-2-1.67-3.91-1.67a5.2,5.2,0,0,0-2,.41,7.25,7.25,0,0,0-1.78,1.1,7.54,7.54,0,0,0-1.39,1.58,6.76,6.76,0,0,0-.88,1.89v12.54h-3.08Z"/><path class="cls-2" d="M362.92,174.23a10.58,10.58,0,0,1-1.7,1.2,12.71,12.71,0,0,1-2.14,1,16.81,16.81,0,0,1-2.42.62,15.37,15.37,0,0,1-2.54.22,11.38,11.38,0,0,1-4.24-.74,8.32,8.32,0,0,1-3.08-2.12,9.39,9.39,0,0,1-1.88-3.3,13.81,13.81,0,0,1-.64-4.32,13.52,13.52,0,0,1,.7-4.49A8.47,8.47,0,0,1,350.2,157a11.94,11.94,0,0,1,4.2-.71,12.47,12.47,0,0,1,3.32.45,6.43,6.43,0,0,1,2.9,1.66,7.83,7.83,0,0,1,1.94,3.36,15.28,15.28,0,0,1,.48,5.53H347.6a7,7,0,0,0,1.94,5.39,7.35,7.35,0,0,0,5.16,1.78,9.15,9.15,0,0,0,2.14-.26,19.67,19.67,0,0,0,2-.62,10.78,10.78,0,0,0,1.7-.8,8.27,8.27,0,0,0,1.14-.8Zm-8.42-15.32a10.5,10.5,0,0,0-2.49.28,5.45,5.45,0,0,0-2.07.94,5.07,5.07,0,0,0-1.48,1.72,6.86,6.86,0,0,0-.74,2.62h12.4a6.16,6.16,0,0,0-1.69-4.1A5.37,5.37,0,0,0,354.5,158.91Z"/><path class="cls-2" d="M368.4,176.75v-2.68h5.4V159.43h-5.4v-2.68h7.48l.64,2.6h.2a14.14,14.14,0,0,1,3-2.12,8.49,8.49,0,0,1,4-.88,4,4,0,0,1,2.18.52,3.33,3.33,0,0,1,1.28,1.52,7.57,7.57,0,0,1,.62,2.42A28.15,28.15,0,0,1,388,164l-2.8,0a10.1,10.1,0,0,0-.5-3.73,1.81,1.81,0,0,0-1.82-1.19,6.38,6.38,0,0,0-2.24.36,7.45,7.45,0,0,0-1.74.87,10,10,0,0,0-1.26,1,6.27,6.27,0,0,0-.76.88v11.77h7.68v2.68Z"/></svg>